<svg width="144" height="38" viewBox="0 0 144 38" fill="none" xmlns="http://www.w3.org/2000/svg">
<g clip-path="url(#clip0_628_14)">
<path d="M33.9652 32.3764C32.4112 33.8854 30.5956 35.1168 28.6017 36.0142C26.2408 37.1133 23.678 37.7443 21.0631 37.8704C18.4482 37.9966 15.8336 37.6153 13.3722 36.7489C10.9036 35.8876 8.63532 34.5599 6.69831 32.8423C4.76129 31.1248 3.19398 29.0515 2.08693 26.7422C-2.55654 17.151 1.52346 5.64968 11.3739 0.56275L11.4365 0.537416L11.8643 0.876883L14.4 3.65848C14.8058 4.05305 15.2883 4.36549 15.8194 4.5777C16.3505 4.78991 16.9196 4.89767 17.4939 4.89475C18.6239 4.89892 19.7112 4.47547 20.5252 3.71422L24.3652 0.111816L24.433 0.142216C24.8301 0.394224 25.1899 0.697641 25.5026 1.04408L25.6174 1.16568L25.7113 1.27208C26.4835 2.15875 28.9409 5.51288 28.1165 11.3294L31.7687 15.859L31.6591 16.5075C31.1374 19.1169 28.44 21.3259 25.0122 22.0049C24.2709 22.1559 23.5156 22.2323 22.7582 22.2329C19.1582 22.2329 15.6261 20.3481 13.2991 17.2017L13.2626 17.1459L13.2887 17.0649L15.2348 15.2003L15.3026 15.2662L15.3391 15.3169C15.4591 15.4841 15.5843 15.6411 15.7043 15.8235C17.593 18.1745 20.113 19.4715 22.8 19.4715C23.3592 19.4711 23.9169 19.4151 24.4643 19.3043C26.4835 18.9041 28.1687 17.7843 28.753 16.4569L25.1687 12.059L25.2469 11.4358C25.9252 7.56488 24.9078 5.08222 24.2452 3.94728L24.1982 3.98782L24.0313 4.16515L22.4661 5.68515C21.1301 6.93626 19.3446 7.63238 17.4887 7.62568C16.5455 7.63256 15.6103 7.45689 14.7378 7.10892C13.8653 6.76095 13.0729 6.24766 12.4069 5.59902L10.9565 3.85608C3.65215 8.31982 0.892151 17.8553 4.6278 25.5667C6.01729 28.4196 8.20982 30.8323 10.9519 32.526C13.694 34.2197 16.8737 35.1251 20.1235 35.1377C22.6514 35.1406 25.1477 34.5917 27.4278 33.5315C29.2192 32.7051 30.8487 31.5821 32.2435 30.2129L33.9652 32.3764ZM23.3895 10.3262C23.3875 10.015 23.2906 9.71136 23.111 9.45356C22.9315 9.19577 22.6774 8.99539 22.3807 8.87767C22.084 8.75996 21.7581 8.7302 21.444 8.79214C21.13 8.85408 20.8418 9.00495 20.6159 9.22572C20.3901 9.44648 20.2366 9.72726 20.1748 10.0326C20.113 10.338 20.1458 10.6543 20.2689 10.9417C20.392 11.229 20.6 11.4745 20.8666 11.6472C21.1332 11.8199 21.4465 11.9121 21.7669 11.9121C21.9807 11.9114 22.1922 11.8699 22.3895 11.7898C22.5867 11.7098 22.7658 11.5928 22.9165 11.4455C23.0671 11.2982 23.1865 11.1236 23.2676 10.9315C23.3488 10.7395 23.3902 10.5338 23.3895 10.3262Z" fill="url(#paint0_linear_628_14)"/>
<path d="M128.766 35.9734V33.8505H130.743C131.974 33.8505 132.371 32.898 132.966 31.454L133.107 31.1094L133.587 29.9897L125.056 10.8833H127.665L134.828 26.8534L141.22 10.8833H143.828L136.555 29.0473L135.574 31.5502C134.421 34.499 132.919 35.9937 131.103 35.9937L128.766 35.9734Z" fill="white"/>
<path d="M71.1441 10.1992C62.7493 10.1992 62.0972 17.2926 62.0972 19.4763C62.0972 24.1123 64.4711 29.0726 71.1441 29.0726C77.8172 29.0726 80.1963 24.1123 80.1963 19.4763C80.1963 17.2976 79.5441 10.1992 71.1441 10.1992ZM71.1441 26.8432C65.7702 26.8432 64.9667 22.1819 64.9667 19.4054C64.9667 14.8454 67.1007 12.4235 71.1441 12.4235C75.1876 12.4235 77.3267 14.8403 77.3267 19.4054C77.3267 22.1819 76.5233 26.8534 71.1441 26.8534V26.8432Z" fill="white"/>
<path d="M50.2334 29.0729C43.5342 29.0729 41.1499 24.0974 41.1499 19.4462C41.1499 17.2777 41.7969 10.2046 50.1603 10.2046C56.3377 10.2046 58.3621 14.0249 58.9464 17.3638H56.2229C55.6073 14.1363 53.5151 12.4289 50.1603 12.4289C47.3586 12.4289 44.0195 13.6398 44.0195 19.4107C44.0195 24.2038 46.2264 26.8537 50.2334 26.8537C53.3638 26.8537 55.5134 25.2678 56.2125 22.4862H58.9569C58.4351 24.6953 56.6351 29.0729 50.2334 29.0729Z" fill="white"/>
<path d="M121.993 3.93213H119.275V28.7183H121.993V3.93213Z" fill="white"/>
<path d="M114.538 10.8833H111.82V28.7129H114.538V10.8833Z" fill="white"/>
<path d="M97.5659 28.7175V10.8727H100.289V14.1509H100.842C100.842 13.8013 101.886 10.5535 105.267 10.5535C106.095 10.5443 106.912 10.734 107.646 11.1058V13.6087C106.888 13.1874 106.031 12.9623 105.157 12.9551C101.959 12.9551 100.289 16.2181 100.289 19.4405V28.7175H97.5659Z" fill="white"/>
<path d="M83.8433 28.7179V10.8731H86.5667V14.1512H87.1302C87.1302 13.8016 88.1476 10.5539 91.5494 10.5539C92.3719 10.5473 93.1834 10.737 93.9128 11.1061V13.6091C93.1531 13.1869 92.2942 12.9618 91.4189 12.9555C88.2259 12.9555 86.5511 16.2184 86.5511 19.4408V28.7179H83.8433Z" fill="white"/>
<path d="M114.564 8.18848V5.49268H111.788V8.18848H114.564Z" fill="white"/>
<path d="M160.926 -16.9883H-14.6445V52.6125H160.926V-16.9883Z" stroke="#FFA927" stroke-width="2" stroke-miterlimit="10"/>
</g>
<defs>
<linearGradient id="paint0_linear_628_14" x1="36.9995" y1="11.6928" x2="6.02444" y2="33.3909" gradientUnits="userSpaceOnUse">
<stop stop-color="#08F2B6"/>
<stop offset="1" stop-color="#371BB1"/>
</linearGradient>
<clipPath id="clip0_628_14">
<rect width="144" height="38" fill="white"/>
</clipPath>
</defs>
</svg>
