<svg width="34" height="38" viewBox="0 0 34 38" fill="none" xmlns="http://www.w3.org/2000/svg">
<path d="M33.9652 32.3764C32.4112 33.8854 30.5956 35.1168 28.6017 36.0142C26.2408 37.1133 23.678 37.7443 21.0631 37.8704C18.4482 37.9966 15.8336 37.6153 13.3722 36.7489C10.9036 35.8876 8.63532 34.5599 6.69831 32.8423C4.76129 31.1248 3.19398 29.0515 2.08693 26.7422C-2.55654 17.151 1.52346 5.64968 11.3739 0.56275L11.4365 0.537416L11.8643 0.876883L14.4 3.65848C14.8058 4.05305 15.2883 4.36549 15.8194 4.5777C16.3505 4.78991 16.9196 4.89767 17.4939 4.89475C18.6239 4.89892 19.7112 4.47547 20.5252 3.71422L24.3652 0.111816L24.433 0.142216C24.8301 0.394224 25.1899 0.697641 25.5026 1.04408L25.6174 1.16568L25.7113 1.27208C26.4835 2.15875 28.9409 5.51288 28.1165 11.3294L31.7687 15.859L31.6591 16.5075C31.1374 19.1169 28.44 21.3259 25.0122 22.0049C24.2709 22.1559 23.5156 22.2323 22.7582 22.2329C19.1582 22.2329 15.6261 20.3481 13.2991 17.2017L13.2626 17.1459L13.2887 17.0649L15.2348 15.2003L15.3026 15.2662L15.3391 15.3169C15.4591 15.4841 15.5843 15.6411 15.7043 15.8235C17.593 18.1745 20.113 19.4715 22.8 19.4715C23.3592 19.4711 23.9169 19.4151 24.4643 19.3043C26.4835 18.9041 28.1687 17.7843 28.753 16.4569L25.1687 12.059L25.2469 11.4358C25.9252 7.56488 24.9078 5.08222 24.2452 3.94728L24.1982 3.98782L24.0313 4.16515L22.4661 5.68515C21.1301 6.93626 19.3446 7.63238 17.4887 7.62568C16.5455 7.63256 15.6103 7.45689 14.7378 7.10892C13.8653 6.76095 13.0729 6.24766 12.4069 5.59902L10.9565 3.85608C3.65215 8.31982 0.892151 17.8553 4.6278 25.5667C6.01729 28.4196 8.20982 30.8323 10.9519 32.526C13.694 34.2197 16.8737 35.1251 20.1235 35.1377C22.6514 35.1406 25.1477 34.5917 27.4278 33.5315C29.2192 32.7051 30.8487 31.5821 32.2435 30.2129L33.9652 32.3764ZM23.3895 10.3262C23.3875 10.015 23.2906 9.71136 23.111 9.45356C22.9315 9.19577 22.6774 8.99539 22.3807 8.87767C22.084 8.75996 21.7581 8.7302 21.444 8.79214C21.13 8.85408 20.8418 9.00495 20.6159 9.22572C20.3901 9.44648 20.2366 9.72726 20.1748 10.0326C20.113 10.338 20.1458 10.6543 20.2689 10.9417C20.392 11.229 20.6 11.4745 20.8666 11.6472C21.1332 11.8199 21.4465 11.9121 21.7669 11.9121C21.9807 11.9114 22.1922 11.8699 22.3895 11.7898C22.5867 11.7098 22.7658 11.5928 22.9165 11.4455C23.0671 11.2982 23.1865 11.1236 23.2676 10.9315C23.3488 10.7395 23.3902 10.5338 23.3895 10.3262Z" fill="url(#paint0_linear_628_16)"/>
<defs>
<linearGradient id="paint0_linear_628_16" x1="36.9995" y1="11.6928" x2="6.02444" y2="33.3909" gradientUnits="userSpaceOnUse">
<stop stop-color="#08F2B6"/>
<stop offset="1" stop-color="#371BB1"/>
</linearGradient>
</defs>
</svg>
